<svg xmlns="http://www.w3.org/2000/svg" style="width:0; height:0; visibility:hidden;">
    <symbol id="sprite--test" viewBox="0 0 100 100">
      <path d="M255.656 40.156c-14.33.027-28.87 1.483-43.437 4.5C95.675 68.79 20.52 183.24 44.655 299.78c24.135 116.544 138.55 191.7 255.094 167.564l-6.094-29.375C192.99 458.815 94.878 394.353 74.03 293.686 53.185 193.02 117.647 94.877 218.313 74.03c100.667-20.846 198.78 43.616 219.625 144.282 8.715 42.08 2.575 85.84-17.312 123.844l-20.53-11.875-10.19 98.69 80.376-58.158-23.655-13.656c23.56-44.39 30.892-95.63 20.688-144.906-21.118-101.975-111.35-172.283-211.657-172.094z"/>
    </symbol></svg>